<svg xmlns="http://www.w3.org/2000/svg" viewBox="0 0 1024 1024" role="img" aria-label="RUride logo">
  <rect width="1024" height="1024" rx="240" fill="#CC0033"/>
  <g fill="#FFF7ED">
    <path d="M280 232h230c114 0 184 62 184 168 0 74-36 124-101 150l114 242H584L489 580h-86v212H280V232Zm123 101v147h92c49 0 76-26 76-74 0-47-27-73-76-73h-92Z"/>
    <path d="M429 646c36 0 68 8 95 23 23 13 44 31 61 55l-73 51c-22-30-48-45-79-45-22 0-40 5-54 16-13 11-20 25-20 43 0 19 8 34 23 45 16 12 37 18 64 18h37v72h-46c-59 0-107-15-143-44-35-30-53-69-53-119 0-35 8-66 25-93 17-28 40-49 70-65 30-15 64-22 103-22Z"/>
  </g>
</svg>
